<svg viewBox="-20 -20 893.3333435058594 281.6666666666667" version="1.1" xmlns:xlink="http://www.w3.org/1999/xlink" xmlns="http://www.w3.org/2000/svg" style="max-height: 500px" width="893.3333435058594" height="281.6666666666667"><text transform="translate(444, 20)" style="font-family: Verdana; font-size: 12px; font-weight: normal; fill: #000000; line-height: 15px;"><tspan y="0" x="0">1. Technik um mehr RAM zu nutzen als eigentlich verf체gbar ist</tspan><tspan y="15" x="0">2. Festspeicher, liest Daten mithilfe von elektronischen</tspan><tspan y="30" x="0">Schaltungen</tspan><tspan y="45" x="0">3. Zwei separate RAM-Module arbeiten in Paaren</tspan><tspan y="60" x="0">4. Ged채chtnis des Computers</tspan><tspan y="75" x="0">5. Festspeicher, f체r lange Datenspeicherung</tspan><tspan y="90" x="0">6. Einheit von Speicherplatz Mega...?</tspan></text><g><g><rect fill="#000000" height="35" width="35" y="108" x="4"/><rect fill="#000000" height="35" width="35" y="108" x="179"/><rect fill="#000000" height="35" width="35" y="108" x="284"/><rect fill="#000000" height="35" width="35" y="143" x="4"/><rect fill="#000000" height="35" width="35" y="143" x="74"/><rect fill="#000000" height="35" width="35" y="143" x="284"/><rect fill="#000000" height="35" width="35" y="178" x="4"/><rect fill="#000000" height="35" width="35" y="178" x="39"/><rect fill="#000000" height="35" width="35" y="178" x="74"/><rect fill="#000000" height="35" width="35" y="178" x="109"/><rect fill="#000000" height="35" width="35" y="178" x="144"/><rect fill="#000000" height="35" width="35" y="178" x="179"/><rect fill="#000000" height="35" width="35" y="178" x="214"/><rect fill="#000000" height="35" width="35" y="178" x="249"/><rect fill="#000000" height="35" width="35" y="178" x="284"/><rect fill="#000000" height="35" width="35" y="178" x="319"/><rect fill="#000000" height="35" width="35" y="178" x="354"/><rect fill="#000000" height="35" width="35" y="178" x="389"/><rect fill="#000000" height="35" width="35" y="213" x="74"/><rect fill="#000000" height="35" width="35" y="213" x="284"/><rect fill="#000000" height="35" width="35" y="73" x="74"/><rect fill="#000000" height="35" width="35" y="73" x="109"/><rect fill="#000000" height="35" width="35" y="73" x="144"/><rect fill="#000000" height="35" width="35" y="73" x="179"/><rect fill="#000000" height="35" width="35" y="73" x="214"/><rect fill="#000000" height="35" width="35" y="73" x="249"/><rect fill="#000000" height="35" width="35" y="73" x="284"/><rect fill="#000000" height="35" width="35" y="73" x="319"/><rect fill="#000000" height="35" width="35" y="73" x="354"/><rect fill="#000000" height="35" width="35" y="73" x="389"/><rect fill="#000000" height="35" width="35" y="3" x="179"/><rect fill="#000000" height="35" width="35" y="38" x="179"/><rect fill="#000000" height="35" width="35" y="38" x="284"/></g><g transform="translate(0, 105)"><rect stroke-width="1" stroke="#000000" fill="#ffffff" height="35" width="35" y="0" x="0"/><text y="-3.5" x="14.324999809265137" style="line-height: 1; font-family: Verdana; font-size: 10px; font-weight: normal; fill: #000000;">2</text><polygon points="12.5,0 22.5,0 17.5,6.6000000000000005" style="fill: options.questionNumbers.color;"/></g><g transform="translate(175, 105)"><rect stroke-width="1" stroke="#000000" fill="#ffffff" height="35" width="35" y="0" x="0"/></g><g transform="translate(280, 105)"><rect stroke-width="1" stroke="#000000" fill="#ffffff" height="35" width="35" y="0" x="0"/></g><g transform="translate(0, 140)"><rect stroke-width="1" stroke="#000000" fill="#ffffff" height="35" width="35" y="0" x="0"/></g><g transform="translate(70, 140)"><rect stroke-width="1" stroke="#000000" fill="#ffffff" height="35" width="35" y="0" x="0"/><text y="-3.5" x="14.324999809265137" style="line-height: 1; font-family: Verdana; font-size: 10px; font-weight: normal; fill: #000000;">4</text><polygon points="12.5,0 22.5,0 17.5,6.6000000000000005" style="fill: options.questionNumbers.color;"/></g><g transform="translate(280, 140)"><rect stroke-width="1" stroke="#000000" fill="#ffffff" height="35" width="35" y="0" x="0"/></g><g transform="translate(0, 175)"><rect stroke-width="1" stroke="#000000" fill="#ffffff" height="35" width="35" y="0" x="0"/><text y="20.5" x="-8.850000381469727" style="line-height: 1; font-family: Verdana; font-size: 10px; font-weight: normal; fill: #000000;">3</text><polygon points="0,12.5 0,22.5 6.6000000000000005,17.5" style="fill: options.questionNumbers.color;"/></g><g transform="translate(35, 175)"><rect stroke-width="1" stroke="#000000" fill="#ffffff" height="35" width="35" y="0" x="0"/></g><g transform="translate(70, 175)"><rect stroke-width="1" stroke="#000000" fill="#ffffff" height="35" width="35" y="0" x="0"/></g><g transform="translate(105, 175)"><rect stroke-width="1" stroke="#000000" fill="#ffffff" height="35" width="35" y="0" x="0"/></g><g transform="translate(140, 175)"><rect stroke-width="1" stroke="#000000" fill="#ffffff" height="35" width="35" y="0" x="0"/></g><g transform="translate(175, 175)"><rect stroke-width="1" stroke="#000000" fill="#ffffff" height="35" width="35" y="0" x="0"/></g><g transform="translate(210, 175)"><rect stroke-width="1" stroke="#000000" fill="#ffffff" height="35" width="35" y="0" x="0"/></g><g transform="translate(245, 175)"><rect stroke-width="1" stroke="#000000" fill="#ffffff" height="35" width="35" y="0" x="0"/></g><g transform="translate(280, 175)"><rect stroke-width="1" stroke="#000000" fill="#ffffff" height="35" width="35" y="0" x="0"/></g><g transform="translate(315, 175)"><rect stroke-width="1" stroke="#000000" fill="#ffffff" height="35" width="35" y="0" x="0"/></g><g transform="translate(350, 175)"><rect stroke-width="1" stroke="#000000" fill="#ffffff" height="35" width="35" y="0" x="0"/></g><g transform="translate(385, 175)"><rect stroke-width="1" stroke="#000000" fill="#ffffff" height="35" width="35" y="0" x="0"/></g><g transform="translate(70, 210)"><rect stroke-width="1" stroke="#000000" fill="#ffffff" height="35" width="35" y="0" x="0"/></g><g transform="translate(280, 210)"><rect stroke-width="1" stroke="#000000" fill="#ffffff" height="35" width="35" y="0" x="0"/></g><g transform="translate(70, 70)"><rect stroke-width="1" stroke="#000000" fill="#ffffff" height="35" width="35" y="0" x="0"/><text y="20.5" x="-8.850000381469727" style="line-height: 1; font-family: Verdana; font-size: 10px; font-weight: normal; fill: #000000;">5</text><polygon points="0,12.5 0,22.5 6.6000000000000005,17.5" style="fill: options.questionNumbers.color;"/></g><g transform="translate(105, 70)"><rect stroke-width="1" stroke="#000000" fill="#ffffff" height="35" width="35" y="0" x="0"/></g><g transform="translate(140, 70)"><rect stroke-width="1" stroke="#000000" fill="#ffffff" height="35" width="35" y="0" x="0"/></g><g transform="translate(175, 70)"><rect stroke-width="1" stroke="#000000" fill="#ffffff" height="35" width="35" y="0" x="0"/></g><g transform="translate(210, 70)"><rect stroke-width="1" stroke="#000000" fill="#ffffff" height="35" width="35" y="0" x="0"/></g><g transform="translate(245, 70)"><rect stroke-width="1" stroke="#000000" fill="#ffffff" height="35" width="35" y="0" x="0"/></g><g transform="translate(280, 70)"><rect stroke-width="1" stroke="#000000" fill="#ffffff" height="35" width="35" y="0" x="0"/></g><g transform="translate(315, 70)"><rect stroke-width="1" stroke="#000000" fill="#ffffff" height="35" width="35" y="0" x="0"/></g><g transform="translate(350, 70)"><rect stroke-width="1" stroke="#000000" fill="#ffffff" height="35" width="35" y="0" x="0"/></g><g transform="translate(385, 70)"><rect stroke-width="1" stroke="#000000" fill="#ffffff" height="35" width="35" y="0" x="0"/></g><g transform="translate(175, 0)"><rect stroke-width="1" stroke="#000000" fill="#ffffff" height="35" width="35" y="0" x="0"/><text y="-3.5" x="14.324999809265137" style="line-height: 1; font-family: Verdana; font-size: 10px; font-weight: normal; fill: #000000;">6</text><polygon points="12.5,0 22.5,0 17.5,6.6000000000000005" style="fill: options.questionNumbers.color;"/></g><g transform="translate(175, 35)"><rect stroke-width="1" stroke="#000000" fill="#ffffff" height="35" width="35" y="0" x="0"/></g><g transform="translate(280, 35)"><rect stroke-width="1" stroke="#000000" fill="#ffffff" height="35" width="35" y="0" x="0"/><text y="-3.5" x="14.324999809265137" style="line-height: 1; font-family: Verdana; font-size: 10px; font-weight: normal; fill: #000000;">1</text><polygon points="12.5,0 22.5,0 17.5,6.6000000000000005" style="fill: options.questionNumbers.color;"/></g></g><text style="line-height: 1; font-family: Verdana; font-size: 12px; font-weight: normal; fill: #000000;" transform="translate(0, 298)"><tspan y="-15" x="0">Erstellt mit XWords - dem kostenlosen Online-Kreuzwortr채tsel-Generator</tspan><tspan y="0" x="0">https://www.xwords-generator.de/de</tspan></text></svg>