<svg style="max-height: 500px" xmlns="http://www.w3.org/2000/svg" xmlns:xlink="http://www.w3.org/1999/xlink" version="1.1" viewBox="-20 -20 454.70667184448246 278.08994708994715" width="454.70667184448246" height="278.08994708994715"><text style="font-family: Verdana; font-size: 12px; font-weight: normal; fill: #000000; line-height: 15px;" transform="translate(444, 20)"><tspan x="0" y="0">1. Technik um mehr RAM zu nutzen als eigentlich verf체gbar ist</tspan><tspan x="0" y="15">2. Festspeicher, liest Daten mithilfe von elektronischen</tspan><tspan x="0" y="30">Schaltungen</tspan><tspan x="0" y="45">3. Zwei separate RAM-Module arbeiten in Paaren</tspan><tspan x="0" y="60">4. Ged채chtnis des Computers</tspan><tspan x="0" y="75">5. Festspeicher, f체r lange Datenspeicherung</tspan><tspan x="0" y="90">6. Einheit von Speicherplatz Mega...?</tspan></text><g><g><rect x="4" y="108" width="35" height="35" fill="#000000"/><rect x="179" y="108" width="35" height="35" fill="#000000"/><rect x="284" y="108" width="35" height="35" fill="#000000"/><rect x="4" y="143" width="35" height="35" fill="#000000"/><rect x="74" y="143" width="35" height="35" fill="#000000"/><rect x="284" y="143" width="35" height="35" fill="#000000"/><rect x="4" y="178" width="35" height="35" fill="#000000"/><rect x="39" y="178" width="35" height="35" fill="#000000"/><rect x="74" y="178" width="35" height="35" fill="#000000"/><rect x="109" y="178" width="35" height="35" fill="#000000"/><rect x="144" y="178" width="35" height="35" fill="#000000"/><rect x="179" y="178" width="35" height="35" fill="#000000"/><rect x="214" y="178" width="35" height="35" fill="#000000"/><rect x="249" y="178" width="35" height="35" fill="#000000"/><rect x="284" y="178" width="35" height="35" fill="#000000"/><rect x="319" y="178" width="35" height="35" fill="#000000"/><rect x="354" y="178" width="35" height="35" fill="#000000"/><rect x="389" y="178" width="35" height="35" fill="#000000"/><rect x="74" y="213" width="35" height="35" fill="#000000"/><rect x="284" y="213" width="35" height="35" fill="#000000"/><rect x="74" y="73" width="35" height="35" fill="#000000"/><rect x="109" y="73" width="35" height="35" fill="#000000"/><rect x="144" y="73" width="35" height="35" fill="#000000"/><rect x="179" y="73" width="35" height="35" fill="#000000"/><rect x="214" y="73" width="35" height="35" fill="#000000"/><rect x="249" y="73" width="35" height="35" fill="#000000"/><rect x="284" y="73" width="35" height="35" fill="#000000"/><rect x="319" y="73" width="35" height="35" fill="#000000"/><rect x="354" y="73" width="35" height="35" fill="#000000"/><rect x="389" y="73" width="35" height="35" fill="#000000"/><rect x="179" y="3" width="35" height="35" fill="#000000"/><rect x="179" y="38" width="35" height="35" fill="#000000"/><rect x="284" y="38" width="35" height="35" fill="#000000"/></g><g transform="translate(0, 105)"><rect x="0" y="0" width="35" height="35" fill="#ffffff" stroke="#000000" stroke-width="1"/><text y="23.75" style="line-height: 1; font-family: Verdana; font-size: 16px; font-weight: bold; fill: #000000;" x="11.81666612625122">S</text><text style="line-height: 1; font-family: Verdana; font-size: 10px; font-weight: normal; fill: #000000;" x="14.324999809265137" y="-3.5">2</text><polygon style="fill: options.questionNumbers.color;" points="12.5,0 22.5,0 17.5,6.6000000000000005"/></g><g transform="translate(175, 105)"><rect x="0" y="0" width="35" height="35" fill="#ffffff" stroke="#000000" stroke-width="1"/><text y="23.75" style="line-height: 1; font-family: Verdana; font-size: 16px; font-weight: bold; fill: #000000;" x="12.033332824707031">E</text></g><g transform="translate(280, 105)"><rect x="0" y="0" width="35" height="35" fill="#ffffff" stroke="#000000" stroke-width="1"/><text y="23.75" style="line-height: 1; font-family: Verdana; font-size: 16px; font-weight: bold; fill: #000000;" x="11.0083327293396">G</text></g><g transform="translate(0, 140)"><rect x="0" y="0" width="35" height="35" fill="#ffffff" stroke="#000000" stroke-width="1"/><text y="23.75" style="line-height: 1; font-family: Verdana; font-size: 16px; font-weight: bold; fill: #000000;" x="11.81666612625122">S</text></g><g transform="translate(70, 140)"><rect x="0" y="0" width="35" height="35" fill="#ffffff" stroke="#000000" stroke-width="1"/><text y="23.75" style="line-height: 1; font-family: Verdana; font-size: 16px; font-weight: bold; fill: #000000;" x="11.241666316986084">R</text><text style="line-height: 1; font-family: Verdana; font-size: 10px; font-weight: normal; fill: #000000;" x="14.324999809265137" y="-3.5">4</text><polygon style="fill: options.questionNumbers.color;" points="12.5,0 22.5,0 17.5,6.6000000000000005"/></g><g transform="translate(280, 140)"><rect x="0" y="0" width="35" height="35" fill="#ffffff" stroke="#000000" stroke-width="1"/><text y="23.75" style="line-height: 1; font-family: Verdana; font-size: 16px; font-weight: bold; fill: #000000;" x="13.133333206176758">I</text></g><g transform="translate(0, 175)"><rect x="0" y="0" width="35" height="35" fill="#ffffff" stroke="#000000" stroke-width="1"/><text y="23.75" style="line-height: 1; font-family: Verdana; font-size: 16px; font-weight: bold; fill: #000000;" x="10.858333110809326">D</text><text style="line-height: 1; font-family: Verdana; font-size: 10px; font-weight: normal; fill: #000000;" x="-8.850000381469727" y="20.5">3</text><polygon style="fill: options.questionNumbers.color;" points="0,12.5 0,22.5 6.6000000000000005,17.5"/></g><g transform="translate(35, 175)"><rect x="0" y="0" width="35" height="35" fill="#ffffff" stroke="#000000" stroke-width="1"/><text y="23.75" style="line-height: 1; font-family: Verdana; font-size: 16px; font-weight: bold; fill: #000000;" x="10.999999523162842">U</text></g><g transform="translate(70, 175)"><rect x="0" y="0" width="35" height="35" fill="#ffffff" stroke="#000000" stroke-width="1"/><text y="23.75" style="line-height: 1; font-family: Verdana; font-size: 16px; font-weight: bold; fill: #000000;" x="11.291666507720947">A</text></g><g transform="translate(105, 175)"><rect x="0" y="0" width="35" height="35" fill="#ffffff" stroke="#000000" stroke-width="1"/><text y="23.75" style="line-height: 1; font-family: Verdana; font-size: 16px; font-weight: bold; fill: #000000;" x="12.399999618530273">L</text></g><g transform="translate(140, 175)"><rect x="0" y="0" width="35" height="35" fill="#ffffff" stroke="#000000" stroke-width="1"/><text y="23.75" style="line-height: 1; font-family: Verdana; font-size: 16px; font-weight: bold; fill: #000000;" x="13.65833306312561">-</text></g><g transform="translate(175, 175)"><rect x="0" y="0" width="35" height="35" fill="#ffffff" stroke="#000000" stroke-width="1"/><text y="23.75" style="line-height: 1; font-family: Verdana; font-size: 16px; font-weight: bold; fill: #000000;" x="11.708333015441895">C</text></g><g transform="translate(210, 175)"><rect x="0" y="0" width="35" height="35" fill="#ffffff" stroke="#000000" stroke-width="1"/><text y="23.75" style="line-height: 1; font-family: Verdana; font-size: 16px; font-weight: bold; fill: #000000;" x="10.799999713897705">H</text></g><g transform="translate(245, 175)"><rect x="0" y="0" width="35" height="35" fill="#ffffff" stroke="#000000" stroke-width="1"/><text y="23.75" style="line-height: 1; font-family: Verdana; font-size: 16px; font-weight: bold; fill: #000000;" x="11.291666507720947">A</text></g><g transform="translate(280, 175)"><rect x="0" y="0" width="35" height="35" fill="#ffffff" stroke="#000000" stroke-width="1"/><text y="23.75" style="line-height: 1; font-family: Verdana; font-size: 16px; font-weight: bold; fill: #000000;" x="10.72499942779541">N</text></g><g transform="translate(315, 175)"><rect x="0" y="0" width="35" height="35" fill="#ffffff" stroke="#000000" stroke-width="1"/><text y="23.75" style="line-height: 1; font-family: Verdana; font-size: 16px; font-weight: bold; fill: #000000;" x="10.72499942779541">N</text></g><g transform="translate(350, 175)"><rect x="0" y="0" width="35" height="35" fill="#ffffff" stroke="#000000" stroke-width="1"/><text y="23.75" style="line-height: 1; font-family: Verdana; font-size: 16px; font-weight: bold; fill: #000000;" x="12.033332824707031">E</text></g><g transform="translate(385, 175)"><rect x="0" y="0" width="35" height="35" fill="#ffffff" stroke="#000000" stroke-width="1"/><text y="23.75" style="line-height: 1; font-family: Verdana; font-size: 16px; font-weight: bold; fill: #000000;" x="12.399999618530273">L</text></g><g transform="translate(70, 210)"><rect x="0" y="0" width="35" height="35" fill="#ffffff" stroke="#000000" stroke-width="1"/><text y="23.75" style="line-height: 1; font-family: Verdana; font-size: 16px; font-weight: bold; fill: #000000;" x="9.916666030883789">M</text></g><g transform="translate(280, 210)"><rect x="0" y="0" width="35" height="35" fill="#ffffff" stroke="#000000" stroke-width="1"/><text y="23.75" style="line-height: 1; font-family: Verdana; font-size: 16px; font-weight: bold; fill: #000000;" x="11.0083327293396">G</text></g><g transform="translate(70, 70)"><rect x="0" y="0" width="35" height="35" fill="#ffffff" stroke="#000000" stroke-width="1"/><text y="23.75" style="line-height: 1; font-family: Verdana; font-size: 16px; font-weight: bold; fill: #000000;" x="12.299999713897705">F</text><text style="line-height: 1; font-family: Verdana; font-size: 10px; font-weight: normal; fill: #000000;" x="-8.850000381469727" y="20.5">5</text><polygon style="fill: options.questionNumbers.color;" points="0,12.5 0,22.5 6.6000000000000005,17.5"/></g><g transform="translate(105, 70)"><rect x="0" y="0" width="35" height="35" fill="#ffffff" stroke="#000000" stroke-width="1"/><text y="23.75" style="line-height: 1; font-family: Verdana; font-size: 16px; font-weight: bold; fill: #000000;" x="12.033332824707031">E</text></g><g transform="translate(140, 70)"><rect x="0" y="0" width="35" height="35" fill="#ffffff" stroke="#000000" stroke-width="1"/><text y="23.75" style="line-height: 1; font-family: Verdana; font-size: 16px; font-weight: bold; fill: #000000;" x="11.81666612625122">S</text></g><g transform="translate(175, 70)"><rect x="0" y="0" width="35" height="35" fill="#ffffff" stroke="#000000" stroke-width="1"/><text y="23.75" style="line-height: 1; font-family: Verdana; font-size: 16px; font-weight: bold; fill: #000000;" x="12.049999713897705">T</text></g><g transform="translate(210, 70)"><rect x="0" y="0" width="35" height="35" fill="#ffffff" stroke="#000000" stroke-width="1"/><text y="23.75" style="line-height: 1; font-family: Verdana; font-size: 16px; font-weight: bold; fill: #000000;" x="11.633333206176758">P</text></g><g transform="translate(245, 70)"><rect x="0" y="0" width="35" height="35" fill="#ffffff" stroke="#000000" stroke-width="1"/><text y="23.75" style="line-height: 1; font-family: Verdana; font-size: 16px; font-weight: bold; fill: #000000;" x="12.399999618530273">L</text></g><g transform="translate(280, 70)"><rect x="0" y="0" width="35" height="35" fill="#ffffff" stroke="#000000" stroke-width="1"/><text y="23.75" style="line-height: 1; font-family: Verdana; font-size: 16px; font-weight: bold; fill: #000000;" x="11.291666507720947">A</text></g><g transform="translate(315, 70)"><rect x="0" y="0" width="35" height="35" fill="#ffffff" stroke="#000000" stroke-width="1"/><text y="23.75" style="line-height: 1; font-family: Verdana; font-size: 16px; font-weight: bold; fill: #000000;" x="12.049999713897705">T</text></g><g transform="translate(350, 70)"><rect x="0" y="0" width="35" height="35" fill="#ffffff" stroke="#000000" stroke-width="1"/><text y="23.75" style="line-height: 1; font-family: Verdana; font-size: 16px; font-weight: bold; fill: #000000;" x="12.049999713897705">T</text></g><g transform="translate(385, 70)"><rect x="0" y="0" width="35" height="35" fill="#ffffff" stroke="#000000" stroke-width="1"/><text y="23.75" style="line-height: 1; font-family: Verdana; font-size: 16px; font-weight: bold; fill: #000000;" x="12.033332824707031">E</text></g><g transform="translate(175, 0)"><rect x="0" y="0" width="35" height="35" fill="#ffffff" stroke="#000000" stroke-width="1"/><text y="23.75" style="line-height: 1; font-family: Verdana; font-size: 16px; font-weight: bold; fill: #000000;" x="11.408332824707031">B</text><text style="line-height: 1; font-family: Verdana; font-size: 10px; font-weight: normal; fill: #000000;" x="14.324999809265137" y="-3.5">6</text><polygon style="fill: options.questionNumbers.color;" points="12.5,0 22.5,0 17.5,6.6000000000000005"/></g><g transform="translate(175, 35)"><rect x="0" y="0" width="35" height="35" fill="#ffffff" stroke="#000000" stroke-width="1"/><text y="23.75" style="line-height: 1; font-family: Verdana; font-size: 16px; font-weight: bold; fill: #000000;" x="11.608333110809326">Y</text></g><g transform="translate(280, 35)"><rect x="0" y="0" width="35" height="35" fill="#ffffff" stroke="#000000" stroke-width="1"/><text y="23.75" style="line-height: 1; font-family: Verdana; font-size: 16px; font-weight: bold; fill: #000000;" x="11.633333206176758">P</text><text style="line-height: 1; font-family: Verdana; font-size: 10px; font-weight: normal; fill: #000000;" x="14.324999809265137" y="-3.5">1</text><polygon style="fill: options.questionNumbers.color;" points="12.5,0 22.5,0 17.5,6.6000000000000005"/></g></g><text transform="translate(0, 298)" style="line-height: 1; font-family: Verdana; font-size: 12px; font-weight: normal; fill: #000000;"><tspan x="0" y="-15">Erstellt mit XWords - dem kostenlosen Online-Kreuzwortr채tsel-Generator</tspan><tspan x="0" y="0">https://www.xwords-generator.de/de</tspan></text></svg>