<svg viewBox="-20 -20 942.8166809082031 212.32394366197184" version="1.1" xmlns:xlink="http://www.w3.org/1999/xlink" xmlns="http://www.w3.org/2000/svg" style="max-height: 500px" width="942.8166809082031" height="212.32394366197184"><text transform="translate(584, 20)" style="font-family: Verdana; font-size: 12px; font-weight: normal; fill: #000000; line-height: 15px;"><tspan y="0" x="0">1. Sind in der CPU und in Früchten zu finden</tspan><tspan y="15" x="0">2. Führt arithmetische Operationen in CPU aus</tspan><tspan y="30" x="0">3. Einheit der Taktrate</tspan><tspan y="45" x="0">4. Einer der drei Schritte, des Core-Prozessor-Zyklus</tspan><tspan y="60" x="0">5. kleine Speicherorte innerhalb der CPU</tspan><tspan y="75" x="0">6. Abkürzung für Simultaneous Multithreading</tspan></text><g><g><rect fill="#000000" height="35" width="35" y="73" x="179"/><rect fill="#000000" height="35" width="35" y="73" x="214"/><rect fill="#000000" height="35" width="35" y="73" x="249"/><rect fill="#000000" height="35" width="35" y="73" x="284"/><rect fill="#000000" height="35" width="35" y="73" x="319"/><rect fill="#000000" height="35" width="35" y="73" x="354"/><rect fill="#000000" height="35" width="35" y="73" x="389"/><rect fill="#000000" height="35" width="35" y="73" x="424"/><rect fill="#000000" height="35" width="35" y="73" x="459"/><rect fill="#000000" height="35" width="35" y="73" x="494"/><rect fill="#000000" height="35" width="35" y="73" x="4"/><rect fill="#000000" height="35" width="35" y="73" x="39"/><rect fill="#000000" height="35" width="35" y="73" x="74"/><rect fill="#000000" height="35" width="35" y="73" x="109"/><rect fill="#000000" height="35" width="35" y="73" x="144"/><rect fill="#000000" height="35" width="35" y="108" x="179"/><rect fill="#000000" height="35" width="35" y="108" x="424"/><rect fill="#000000" height="35" width="35" y="143" x="179"/><rect fill="#000000" height="35" width="35" y="143" x="214"/><rect fill="#000000" height="35" width="35" y="143" x="249"/><rect fill="#000000" height="35" width="35" y="143" x="389"/><rect fill="#000000" height="35" width="35" y="143" x="424"/><rect fill="#000000" height="35" width="35" y="143" x="459"/><rect fill="#000000" height="35" width="35" y="143" x="494"/><rect fill="#000000" height="35" width="35" y="143" x="529"/><rect fill="#000000" height="35" width="35" y="143" x="4"/><rect fill="#000000" height="35" width="35" y="143" x="39"/><rect fill="#000000" height="35" width="35" y="143" x="74"/><rect fill="#000000" height="35" width="35" y="143" x="109"/><rect fill="#000000" height="35" width="35" y="143" x="144"/><rect fill="#000000" height="35" width="35" y="38" x="214"/><rect fill="#000000" height="35" width="35" y="38" x="424"/><rect fill="#000000" height="35" width="35" y="3" x="214"/><rect fill="#000000" height="35" width="35" y="3" x="424"/></g><g transform="translate(175, 70)"><rect stroke-width="1" stroke="#000000" fill="#ffffff" height="35" width="35" y="0" x="0"/><text y="-3.5" x="14.325000047683716" style="line-height: 1; font-family: Verdana; font-size: 10px; font-weight: normal; fill: #000000;">6</text><polygon points="12.5,0 22.5,0 17.5,6.6000000000000005" style="fill: options.questionNumbers.color;"/></g><g transform="translate(210, 70)"><rect stroke-width="1" stroke="#000000" fill="#ffffff" height="35" width="35" y="0" x="0"/></g><g transform="translate(245, 70)"><rect stroke-width="1" stroke="#000000" fill="#ffffff" height="35" width="35" y="0" x="0"/></g><g transform="translate(280, 70)"><rect stroke-width="1" stroke="#000000" fill="#ffffff" height="35" width="35" y="0" x="0"/></g><g transform="translate(315, 70)"><rect stroke-width="1" stroke="#000000" fill="#ffffff" height="35" width="35" y="0" x="0"/></g><g transform="translate(350, 70)"><rect stroke-width="1" stroke="#000000" fill="#ffffff" height="35" width="35" y="0" x="0"/></g><g transform="translate(385, 70)"><rect stroke-width="1" stroke="#000000" fill="#ffffff" height="35" width="35" y="0" x="0"/></g><g transform="translate(420, 70)"><rect stroke-width="1" stroke="#000000" fill="#ffffff" height="35" width="35" y="0" x="0"/></g><g transform="translate(455, 70)"><rect stroke-width="1" stroke="#000000" fill="#ffffff" height="35" width="35" y="0" x="0"/></g><g transform="translate(490, 70)"><rect stroke-width="1" stroke="#000000" fill="#ffffff" height="35" width="35" y="0" x="0"/></g><g transform="translate(0, 70)"><rect stroke-width="1" stroke="#000000" fill="#ffffff" height="35" width="35" y="0" x="0"/><text y="20.5" x="-8.849999904632568" style="line-height: 1; font-family: Verdana; font-size: 10px; font-weight: normal; fill: #000000;">4</text><polygon points="0,12.5 0,22.5 6.6000000000000005,17.5" style="fill: options.questionNumbers.color;"/></g><g transform="translate(35, 70)"><rect stroke-width="1" stroke="#000000" fill="#ffffff" height="35" width="35" y="0" x="0"/></g><g transform="translate(70, 70)"><rect stroke-width="1" stroke="#000000" fill="#ffffff" height="35" width="35" y="0" x="0"/></g><g transform="translate(105, 70)"><rect stroke-width="1" stroke="#000000" fill="#ffffff" height="35" width="35" y="0" x="0"/></g><g transform="translate(140, 70)"><rect stroke-width="1" stroke="#000000" fill="#ffffff" height="35" width="35" y="0" x="0"/></g><g transform="translate(175, 105)"><rect stroke-width="1" stroke="#000000" fill="#ffffff" height="35" width="35" y="0" x="0"/></g><g transform="translate(420, 105)"><rect stroke-width="1" stroke="#000000" fill="#ffffff" height="35" width="35" y="0" x="0"/></g><g transform="translate(175, 140)"><rect stroke-width="1" stroke="#000000" fill="#ffffff" height="35" width="35" y="0" x="0"/></g><g transform="translate(210, 140)"><rect stroke-width="1" stroke="#000000" fill="#ffffff" height="35" width="35" y="0" x="0"/></g><g transform="translate(245, 140)"><rect stroke-width="1" stroke="#000000" fill="#ffffff" height="35" width="35" y="0" x="0"/></g><g transform="translate(385, 140)"><rect stroke-width="1" stroke="#000000" fill="#ffffff" height="35" width="35" y="0" x="0"/><text y="20.5" x="-8.849999904632568" style="line-height: 1; font-family: Verdana; font-size: 10px; font-weight: normal; fill: #000000;">3</text><polygon points="0,12.5 0,22.5 6.6000000000000005,17.5" style="fill: options.questionNumbers.color;"/></g><g transform="translate(420, 140)"><rect stroke-width="1" stroke="#000000" fill="#ffffff" height="35" width="35" y="0" x="0"/></g><g transform="translate(455, 140)"><rect stroke-width="1" stroke="#000000" fill="#ffffff" height="35" width="35" y="0" x="0"/></g><g transform="translate(490, 140)"><rect stroke-width="1" stroke="#000000" fill="#ffffff" height="35" width="35" y="0" x="0"/></g><g transform="translate(525, 140)"><rect stroke-width="1" stroke="#000000" fill="#ffffff" height="35" width="35" y="0" x="0"/></g><g transform="translate(0, 140)"><rect stroke-width="1" stroke="#000000" fill="#ffffff" height="35" width="35" y="0" x="0"/><text y="20.5" x="-8.849999904632568" style="line-height: 1; font-family: Verdana; font-size: 10px; font-weight: normal; fill: #000000;">5</text><polygon points="0,12.5 0,22.5 6.6000000000000005,17.5" style="fill: options.questionNumbers.color;"/></g><g transform="translate(35, 140)"><rect stroke-width="1" stroke="#000000" fill="#ffffff" height="35" width="35" y="0" x="0"/></g><g transform="translate(70, 140)"><rect stroke-width="1" stroke="#000000" fill="#ffffff" height="35" width="35" y="0" x="0"/></g><g transform="translate(105, 140)"><rect stroke-width="1" stroke="#000000" fill="#ffffff" height="35" width="35" y="0" x="0"/></g><g transform="translate(140, 140)"><rect stroke-width="1" stroke="#000000" fill="#ffffff" height="35" width="35" y="0" x="0"/></g><g transform="translate(210, 35)"><rect stroke-width="1" stroke="#000000" fill="#ffffff" height="35" width="35" y="0" x="0"/></g><g transform="translate(420, 35)"><rect stroke-width="1" stroke="#000000" fill="#ffffff" height="35" width="35" y="0" x="0"/></g><g transform="translate(210, 0)"><rect stroke-width="1" stroke="#000000" fill="#ffffff" height="35" width="35" y="0" x="0"/><text y="-3.5" x="14.325000047683716" style="line-height: 1; font-family: Verdana; font-size: 10px; font-weight: normal; fill: #000000;">2</text><polygon points="12.5,0 22.5,0 17.5,6.6000000000000005" style="fill: options.questionNumbers.color;"/></g><g transform="translate(420, 0)"><rect stroke-width="1" stroke="#000000" fill="#ffffff" height="35" width="35" y="0" x="0"/><text y="-3.5" x="14.325000047683716" style="line-height: 1; font-family: Verdana; font-size: 10px; font-weight: normal; fill: #000000;">1</text><polygon points="12.5,0 22.5,0 17.5,6.6000000000000005" style="fill: options.questionNumbers.color;"/></g></g><text style="line-height: 1; font-family: Verdana; font-size: 12px; font-weight: normal; fill: #000000;" transform="translate(0, 228)"><tspan y="-15" x="0">Created with XWords – the free online crossword puzzle generator</tspan><tspan y="0" x="0">https://www.xwords-generator.de/en</tspan></text></svg>